<svg xmlns="http://www.w3.org/2000/svg" width="15" height="16" viewBox="0 0 15 16">
  <path fill="#F58122" fill-rule="evenodd" d="M7.50585938,0.76171875 C9.5800885,0.76171875 11.3496021,1.4941333 12.8144531,2.95898438 C14.2793042,4.42383545 15.0117188,6.18748969 15.0117188,8.25 C15.0117188,10.3125103 14.2793042,12.0761646 12.8144531,13.5410156 C11.3496021,15.0058667 9.5800885,15.7382812 7.50585938,15.7382812 C5.43163025,15.7382812 3.6621167,15.0058667 2.19726562,13.5410156 C0.732414551,12.0761646 0,10.3125103 0,8.25 C0,6.18748969 0.732414551,4.42383545 2.19726562,2.95898438 C3.6621167,1.4941333 5.43163025,0.76171875 7.50585938,0.76171875 Z M8.26171875,12.0117188 L8.26171875,10.5 L6.75,10.5 L6.75,12.0117188 L8.26171875,12.0117188 Z M8.26171875,8.98828125 L8.26171875,4.48828125 L6.75,4.48828125 L6.75,8.98828125 L8.26171875,8.98828125 Z"/>
</svg>
