<?xml version="1.0" encoding="utf-8"?>
<!-- Generator: Adobe Illustrator 19.0.0, SVG Export Plug-In . SVG Version: 6.00 Build 0)  -->
<!DOCTYPE svg PUBLIC "-//W3C//DTD SVG 1.0//EN" "http://www.w3.org/TR/2001/REC-SVG-20010904/DTD/svg10.dtd">
<svg version="1.0" id="Layer_1" xmlns="http://www.w3.org/2000/svg" xmlns:xlink="http://www.w3.org/1999/xlink" x="0px" y="0px"
	 viewBox="0 0 71.7 37.1" enable-background="new 0 0 71.7 37.1" xml:space="preserve">
<polygon fill-rule="evenodd" clip-rule="evenodd" fill="#CCCCCC" points="38.3,7.4 38.3,0 46.2,0 46.2,7.4 38.3,7.4 "/>
<polygon fill-rule="evenodd" clip-rule="evenodd" fill="#CCCCCC" points="51.1,37.1 51.1,11.8 59,11.8 59,37.1 51.1,37.1 "/>
<polygon fill-rule="evenodd" clip-rule="evenodd" fill="#CCCCCC" points="0,0 7.8,0 7.8,37.1 0,37.1 0,0 "/>
<polygon fill-rule="evenodd" clip-rule="evenodd" fill="#CCCCCC" points="25.6,37.1 25.6,0 33.4,0 33.4,37.1 25.6,37.1 "/>
<polygon fill-rule="evenodd" clip-rule="evenodd" fill="#CCCCCC" points="12.8,25.4 12.8,0 20.6,0 20.6,25.4 12.8,25.4 "/>
<polygon fill-rule="evenodd" clip-rule="evenodd" fill="#CCCCCC" points="51.1,7.4 51.1,0 71.7,0 71.7,7.4 51.1,7.4 "/>
<polygon fill-rule="evenodd" clip-rule="evenodd" fill="#FFFFFF" points="38.4,37.1 38.4,11.7 46.2,11.7 46.2,37.1 38.4,37.1 "/>
</svg>
