<svg xmlns="http://www.w3.org/2000/svg" width="12" height="24" viewBox="0 0 9 18">
  <path d="M7.53320312,3.97070312 L8.72070312,3.97070312 L8.72070312,13.0625 C8.72070312,14.2747456 8.30013441,15.3076129 7.45898438,16.1611328 C6.61783434,17.0146527 5.59115189,17.4414062 4.37890625,17.4414062 C3.16666061,17.4414062 2.13379333,17.0146527 1.28027344,16.1611328 C0.426753545,15.3076129 0,14.2747456 0,13.0625 L0,3.19140625 C0,2.3255165 0.315426533,1.57715159 0.946289062,0.946289062 C1.57715159,0.315426533 2.3255165,0 3.19140625,0 C4.057296,0 4.79947607,0.315426533 5.41796875,0.946289062 C6.03646143,1.57715159 6.34570313,2.3255165 6.34570313,3.19140625 L6.34570313,11.5039062 C6.34570313,12.0481798 6.15397327,12.5120424 5.77050781,12.8955078 C5.38704235,13.2789733 4.9231798,13.4707031 4.37890625,13.4707031 C3.8346327,13.4707031 3.36458531,13.2789733 2.96875,12.8955078 C2.57291469,12.5120424 2.375,12.0481798 2.375,11.5039062 L2.375,3.97070312 L3.5625,3.97070312 L3.5625,11.5039062 C3.5625,11.7265636 3.64290284,11.9121086 3.80371094,12.0605469 C3.96451903,12.2089851 4.15624889,12.2832031 4.37890625,12.2832031 C4.60156361,12.2832031 4.78710863,12.2089851 4.93554688,12.0605469 C5.08398512,11.9121086 5.15820312,11.7265636 5.15820312,11.5039062 L5.15820312,3.19140625 C5.15820312,2.6471327 4.96647327,2.17708531 4.58300781,1.78125 C4.19954235,1.38541469 3.7356798,1.1875 3.19140625,1.1875 C2.6471327,1.1875 2.17708531,1.38541469 1.78125,1.78125 C1.38541469,2.17708531 1.1875,2.6471327 1.1875,3.19140625 L1.1875,13.0625 C1.1875,13.9283897 1.50292653,14.6767547 2.13378906,15.3076172 C2.76465159,15.9384797 3.5130165,16.2539062 4.37890625,16.2539062 C5.244796,16.2539062 5.98697607,15.9384797 6.60546875,15.3076172 C7.22396143,14.6767547 7.53320312,13.9283897 7.53320312,13.0625 L7.53320312,3.97070312 Z"/>
</svg>
